<svg xmlns="http://www.w3.org/2000/svg" width="48" height="48" viewBox="0 0 48 48"><defs><style>.cls-1 {fill: #0000ff;}.cls-2 {fill: #fff;fill-rule: evenodd;}</style></defs><rect id="rect_1" data-name="rect" class="cls-1" width="48" height="48" rx="7" ry="7"/><path id="shape_1" data-name="shape1" class="cls-2" d="M40.953,41H34.367A26.88,26.88,0,0,0,26.917,22.2C18.684,13.264,7,13.734,7,13.734V7s15.761-.313,25.485,11.049S40.953,41,40.953,41ZM24.094,25.958C30.211,33.637,29.5,40.924,29.5,40.924H22.918s-0.078-7.209-4.783-11.519A18.193,18.193,0,0,0,7,25.1V18.357S17.978,18.279,24.094,25.958ZM11.783,31.835A4.466,4.466,0,1,1,7.314,36.3,4.468,4.468,0,0,1,11.783,31.835Z"/></svg>
